<?xml version="1.0" standalone="no"?>
<!DOCTYPE svg PUBLIC "-//W3C//DTD SVG 20010904//EN"
 "http://www.w3.org/TR/2001/REC-SVG-20010904/DTD/svg10.dtd">
<svg version="1.0" xmlns="http://www.w3.org/2000/svg"
 width="16.000000pt" height="16.000000pt" viewBox="0 0 16.000000 16.000000"
 preserveAspectRatio="xMidYMid meet">
<metadata>
Created by potrace 1.11, written by Peter Selinger 2001-2013
</metadata>
<g transform="translate(0.000000,16.000000) scale(0.002286,-0.002286)"
fill="#000000" stroke="none">
<path d="M221 6980 c-109 -39 -166 -98 -205 -211 -14 -39 -15 -407 -13 -3284
l2 -3240 26 -55 c33 -69 88 -124 159 -158 l55 -27 3255 0 3255 0 56 27 c70 35
124 88 157 158 l27 55 0 3255 0 3255 -26 55 c-33 70 -89 126 -159 159 l-55 26
-3240 2 c-3183 2 -3241 2 -3294 -17z"/>
</g>
</svg>
