<svg id="Layer_1" data-name="Layer 1" xmlns="http://www.w3.org/2000/svg" viewBox="0 0 195.62 50"><defs><style>.cls-1{fill:#eee;}</style></defs><title>rackhameffect</title><path class="cls-1" d="M106.81,59.38v.41a.74.74,0,0,1-.8.8.78.78,0,0,1-.8-.8v-.41h-1.09a.92.92,0,1,1,0-1.83h1.09V57a.8.8,0,1,1,1.6,0v.52H111a.92.92,0,1,1,0,1.83Z" transform="translate(-102.19 -26.12)"/><path class="cls-1" d="M103.2,56.07a.92.92,0,1,1,0-1.83h2.49v0a2.18,2.18,0,0,1-.64-1.66,2.34,2.34,0,0,1,2.46-2.5H111a.92.92,0,1,1,0,1.83h-3.19a1.18,1.18,0,1,0,0,2.36H111a.92.92,0,1,1,0,1.83Z" transform="translate(-102.19 -26.12)"/><path class="cls-1" d="M109.19,47.54a1.58,1.58,0,0,0,1.32-1.73c0-.94-.74-1.58-.74-2.07a.81.81,0,0,1,.79-.75c.79,0,1.55,1.62,1.55,3a3.33,3.33,0,0,1-3.51,3.43,3.29,3.29,0,1,1-.21-6.56c.55,0,.81.24.81.8ZM108,44.67a1.45,1.45,0,0,0-1.4,1.46,1.47,1.47,0,0,0,1.4,1.45Z" transform="translate(-102.19 -26.12)"/><path class="cls-1" d="M114.31,44.85a1.93,1.93,0,0,1,2-2h4.82c3.56,0,5.88,2.17,5.88,5.46a4.79,4.79,0,0,1-4.1,4.94L126.39,57a2.46,2.46,0,0,1,.84,1.73,2,2,0,0,1-2,1.85,2.06,2.06,0,0,1-1.9-1l-4.92-6.2h0v5.06a2,2,0,1,1-4,0Zm4,5.58H121a1.94,1.94,0,1,0,0-3.88h-2.64Z" transform="translate(-102.19 -26.12)"/><path class="cls-1" d="M140.89,58.58a1.92,1.92,0,0,1-1.93,2,2,2,0,0,1-1.8-1.23,3.85,3.85,0,0,1-3.31,1.48c-3.36,0-6-3.09-6-7s2.59-7,6-7a3.85,3.85,0,0,1,3.31,1.48,2,2,0,0,1,1.8-1.24,1.92,1.92,0,0,1,1.93,2Zm-9.14-4.72c0,1.78.94,3.26,2.64,3.26S137,55.64,137,53.86s-.94-3.26-2.64-3.26S131.74,52.08,131.74,53.86Z" transform="translate(-102.19 -26.12)"/><path class="cls-1" d="M148.56,46.9c1.73,0,4.57.49,4.57,2.54a1.67,1.67,0,0,1-1.58,1.8c-1,0-1.26-.64-2.77-.64-2,0-2.87,1.48-2.87,3.26s.94,3.26,2.64,3.26,2.42-.67,3-.67a1.72,1.72,0,0,1,1.58,1.71c0,1.93-3,2.67-4.57,2.67-3.9,0-6.5-3.09-6.5-7S144.66,46.9,148.56,46.9Z" transform="translate(-102.19 -26.12)"/><path class="cls-1" d="M154,43.41a1.93,1.93,0,1,1,3.85,0v8.2L161,48.48c.67-.67,1.23-1.33,2.17-1.33a1.8,1.8,0,0,1,1.88,1.78c0,.69-.45,1.14-1.36,2l-2.08,2,3.24,4.1a3.33,3.33,0,0,1,.91,1.71,1.81,1.81,0,0,1-1.9,1.78c-.89,0-1.28-.27-2.1-1.31l-3.85-5h0v4.35a1.93,1.93,0,1,1-3.85,0Z" transform="translate(-102.19 -26.12)"/><path class="cls-1" d="M166.37,43.41a1.93,1.93,0,1,1,3.85,0v4.45h0a5.81,5.81,0,0,1,3.26-1c2.67,0,4.79,1.38,4.79,4.54v7.14a1.93,1.93,0,1,1-3.85,0v-6.1a2.13,2.13,0,1,0-4.25,0v6.1a1.93,1.93,0,1,1-3.85,0Z" transform="translate(-102.19 -26.12)"/><path class="cls-1" d="M192.58,58.58a1.92,1.92,0,0,1-1.93,2,2,2,0,0,1-1.8-1.23,3.84,3.84,0,0,1-3.31,1.48c-3.36,0-6-3.09-6-7s2.6-7,6-7a3.84,3.84,0,0,1,3.31,1.48,2,2,0,0,1,1.8-1.24,1.92,1.92,0,0,1,1.93,2Zm-9.14-4.72c0,1.78.94,3.26,2.64,3.26s2.64-1.48,2.64-3.26-.94-3.26-2.64-3.26S183.44,52.08,183.44,53.86Z" transform="translate(-102.19 -26.12)"/><path class="cls-1" d="M194.28,49.14a1.92,1.92,0,0,1,1.93-2,2.08,2.08,0,0,1,1.93,1.24,3.89,3.89,0,0,1,3.31-1.48A4.63,4.63,0,0,1,205,48.48a6.06,6.06,0,0,1,3.73-1.58c2.67,0,4.79,1.38,4.79,4.54v7.14a1.93,1.93,0,1,1-3.85,0v-6.1a2,2,0,1,0-3.86,0v6.1a1.93,1.93,0,1,1-3.85,0v-6.1a2,2,0,1,0-3.85,0v6.1a1.93,1.93,0,1,1-3.85,0Z" transform="translate(-102.19 -26.12)"/><path class="cls-1" d="M236.9,44.85a1.93,1.93,0,0,1,2-2H245a1.79,1.79,0,0,1,2,1.85,1.77,1.77,0,0,1-2,1.85h-4.13v3.19h3.78a1.86,1.86,0,1,1,0,3.71h-3.78v3.29h4.27a1.77,1.77,0,0,1,2,1.85,1.79,1.79,0,0,1-2,1.85h-6.28a1.93,1.93,0,0,1-2-2Z" transform="translate(-102.19 -26.12)"/><path class="cls-1" d="M249.25,50.85h-.44c-1.23,0-2-.54-2-1.78s.79-1.78,2-1.78h.44V45.56a4,4,0,0,1,4-4.15c1.19,0,2.57.32,2.57,1.78,0,1.21-.62,1.78-1.83,1.78-.59,0-.89.27-.89,1.26v1.06h1.06c1.24,0,2,.54,2,1.78s-.79,1.78-2,1.78h-1.06v7.73a1.93,1.93,0,1,1-3.85,0Z" transform="translate(-102.19 -26.12)"/><path class="cls-1" d="M257.48,50.85H257c-1.24,0-2-.54-2-1.78s.79-1.78,2-1.78h.45V45.56a4,4,0,0,1,4-4.15c1.19,0,2.57.32,2.57,1.78,0,1.21-.62,1.78-1.83,1.78-.59,0-.89.27-.89,1.26v1.06h1.06c1.23,0,2,.54,2,1.78s-.79,1.78-2,1.78h-1.06v7.73a1.93,1.93,0,1,1-3.85,0Z" transform="translate(-102.19 -26.12)"/><path class="cls-1" d="M268.35,55.12c0,.82.62,2.15,3.09,2.15,1.9,0,3.06-1.21,4-1.21a1.6,1.6,0,0,1,1.6,1.66c0,1.88-3.14,3.11-6.05,3.11-4.15,0-6.74-3.09-6.74-7a6.8,6.8,0,0,1,6.74-7,6.33,6.33,0,0,1,6.25,6.55c0,1.36-.64,1.68-1.88,1.68Zm5-2.65a2.5,2.5,0,0,0-5,0Z" transform="translate(-102.19 -26.12)"/><path class="cls-1" d="M284.43,46.9c1.73,0,4.57.49,4.57,2.54a1.67,1.67,0,0,1-1.58,1.8c-1,0-1.26-.64-2.76-.64-2,0-2.87,1.48-2.87,3.26s.94,3.26,2.64,3.26,2.42-.67,3-.67A1.72,1.72,0,0,1,289,58.16c0,1.93-3,2.67-4.57,2.67-3.9,0-6.5-3.09-6.5-7S280.52,46.9,284.43,46.9Z" transform="translate(-102.19 -26.12)"/><path class="cls-1" d="M290.87,50.85h-.45c-1.24,0-2-.54-2-1.78s.79-1.78,2-1.78h.45V44.77a1.93,1.93,0,1,1,3.85,0v2.52h1.06c1.23,0,2,.54,2,1.78s-.79,1.78-2,1.78h-1.06v7.73a1.93,1.93,0,1,1-3.85,0Z" transform="translate(-102.19 -26.12)"/><path class="cls-1" d="M210.73,26.12c-1.84,1.51-2.09,7.49-.66,11.59,1.1,3.15,6.64,9.54,8,11.24a6.15,6.15,0,0,1,1.26,2.21c.07.7-1.06,2.1-1.54,3.09-1.31,2.66-2.48,7.07-1.67,10.81a18.87,18.87,0,0,0,3.74,8.27c.83,1,2,2.42,3.36,2.73a2.35,2.35,0,0,0,.37.06c-.36-2-1.42-3.88-1.72-6.12-.61-4.71-.34-8.7,2.09-8.51a28,28,0,0,0,3.81,6.93c2.49,3.2,7.18,6.74,9.44,7.28a1.74,1.74,0,0,0,.78,0c.86-.21-11.77-14.89-7.51-19.63,1-1.46,6-10.1,4.94-15.89-1.61-4.81-5.39-9.4-6.48-9.66h-.08c-.94.14,2.71,6.61,1.39,10.94-.91,3-1.13,3.83-3.1,5a4.1,4.1,0,0,1-3.16.31,7.35,7.35,0,0,1-1.14-.38,18.78,18.78,0,0,1-5.42-5.23,26.58,26.58,0,0,1-3-5.24c-1.12-2.57-1.5-5.12-2.27-7.58a3.87,3.87,0,0,0-1.39-2.23" transform="translate(-102.19 -26.12)"/><path class="cls-1" d="M223.09,35.2c-2.27-.54-4.13,1.58-4.06,4.2a5.65,5.65,0,0,0,3.2,4.41,3.78,3.78,0,0,0,.95.37,3.62,3.62,0,0,0,4.26-4.33,9.41,9.41,0,0,0-2.17-3.32,4.62,4.62,0,0,0-2.17-1.33" transform="translate(-102.19 -26.12)"/></svg>