<svg id="Layer_1" data-name="Layer 1" xmlns="http://www.w3.org/2000/svg" viewBox="0 0 140.71 50"><defs><style>.cls-1{fill:#eee;}</style></defs><title>runology</title><path class="cls-1" d="M159.94,37.89l-.06-.29c0-.16-.06-.32-.1-.48l-.13-.62c-.12-.59-.28-1.18-.43-1.77a5.48,5.48,0,0,0-.37-1,2,2,0,0,0-.3-.48,2.79,2.79,0,0,0-.66-.5,5.41,5.41,0,0,0-.69-.32l-.41-.18-.68-.33a3.83,3.83,0,0,0-.41-.16,1.81,1.81,0,0,1-.43-.19,1.32,1.32,0,0,1-.25-.27,1.1,1.1,0,0,1-.16-.2c-.06-.11,0-.25.1-.34a1.26,1.26,0,0,0,.14-.4c0-.16.11-.32.15-.49,0,.06.25,0,.28,0s.11-.24.13-.34a1.38,1.38,0,0,1,.12-.48c0-.07.07-.14.11-.2s.18-.2.12-.3-.35-.17-.36-.13c0-.13.1-.25.12-.38a4.49,4.49,0,0,0,0-.53,4.72,4.72,0,0,0,0-.88,1.49,1.49,0,0,0-.3-.8,4.15,4.15,0,0,0-.52-.56,1.33,1.33,0,0,0-.75-.3,3.34,3.34,0,0,0-.85.15,2.1,2.1,0,0,0-.78.21,1.53,1.53,0,0,0-.41.37,1.14,1.14,0,0,0-.2.5c-.06.29-.11.59-.17.88s0,.39-.18.44-.45,0-.49.34a1,1,0,0,0,.08.55c0,.07.11.16.1.24a.61.61,0,0,0,.06.42c.11.16.36.24.42.44s0,.4.07.59.12.07.17.12,0,.17,0,.25,0,.25,0,.38a2.13,2.13,0,0,1-.09.6c-.08.3-.31.4-.58.51s-.49.22-.74.3-.66.12-1,.23a4.39,4.39,0,0,1-.55.2.75.75,0,0,0-.47.21,1.74,1.74,0,0,0-.24.52,7.51,7.51,0,0,0-.1.78,8.48,8.48,0,0,0-.16,1.17c0,.17,0,.35-.06.52a7.61,7.61,0,0,1-.19.81c-.07.28-.15.55-.25.82s-.21.69-.32,1-.2.54-.3.81a5.22,5.22,0,0,0-.21.83l-.17.82a7.46,7.46,0,0,0-.14.84,1.35,1.35,0,0,1,0,.27.5.5,0,0,1-.17.22.27.27,0,0,0-.09.23,7.31,7.31,0,0,1,0,.73.93.93,0,0,0,0,.32,1,1,0,0,0,.34.44,2.34,2.34,0,0,0,.47.28,1.54,1.54,0,0,0,.54.18c.08,0,.21,0,.25,0a.69.69,0,0,1,.07.21c0,.09.07.17.09.27a1.65,1.65,0,0,1,0,.52c0,.12,0,.24,0,.36,0,.62,0,1.25,0,1.87,0,.24,0,.49,0,.73V49a.77.77,0,0,0,.11.46.52.52,0,0,0,.29.17c.13,0,.13,0,.17.16s0,.2.06.3l.11.45c.07.3.13.6.19.9l.16.74a8.55,8.55,0,0,1,.2,1,3.76,3.76,0,0,1-.06.86q0,.37-.12.75c-.06.33-.12.66-.15,1s-.06.67-.09,1a9.07,9.07,0,0,0,0,1.79c0,.16,0,.33.06.49l.1.59a20.42,20.42,0,0,0,.49,2.2,5.67,5.67,0,0,0,.19.58,4,4,0,0,1,.22.65,3.26,3.26,0,0,1-.35.18,1.5,1.5,0,0,0-.49.46c-.11.16-.23.46-.1.63s.35.09.5.17.07.1.1.17.08.15,0,.24-.08.15-.11.23-.17.35-.24.54a.71.71,0,0,0,.07.63.68.68,0,0,0,.36.33c.07,0,.17,0,.18.13s-.06.31.09.41a.9.9,0,0,0,.47.18,8.05,8.05,0,0,0,1.15-.14.42.42,0,0,0,.41-.31c.07-.18,0-.37,0-.56s0-.43.05-.64a2.4,2.4,0,0,0,0-.5,1.76,1.76,0,0,1,0-.64c0-.16-.07-.29-.11-.43a.76.76,0,0,1,0-.3l.2.08a1.27,1.27,0,0,0,0-.18s-.35,0-.35-.05c0-.19-.12-.38-.17-.57a4.51,4.51,0,0,1-.1-.54c0-.13,0-.28-.07-.41s.27-.21.3-.23a1.11,1.11,0,0,0,.25-.3,2.73,2.73,0,0,0,.17-.92,4.88,4.88,0,0,0,0-.51c0-.29,0-.58,0-.86a3.54,3.54,0,0,1,0-.81,1.24,1.24,0,0,1,.17-.43c.09-.13.2-.25.29-.37l.47-.63c.17-.22.3-.46.45-.69a7.26,7.26,0,0,0,.55-.95,1.81,1.81,0,0,0,.12-.85,2.45,2.45,0,0,1,0-.54,3.65,3.65,0,0,1,.28-.73c.22-.52.42-1,.62-1.58a4.07,4.07,0,0,1,.44-1.05,3.71,3.71,0,0,0,.54-1.11c.08-.25.13-.51.19-.77l.2-.77c.08-.32.2-.63.27-1a5.45,5.45,0,0,0,.07-1c0-.28,0-.56,0-.84s0-.3,0-.46a3.34,3.34,0,0,0,0-.72,1.3,1.3,0,0,0-.31-.62s.22-.28.17-.37l-.11-.23a1.48,1.48,0,0,1-.19-.93,3.38,3.38,0,0,0,.1-1.1l-.06-.62a1.2,1.2,0,0,0,.25.1l.35.12a7.48,7.48,0,0,0,1.54.35,5.41,5.41,0,0,0,.56,0,1.21,1.21,0,0,0,.76-.15,1,1,0,0,0,.2-.39,2.33,2.33,0,0,0,.12-.88,2.74,2.74,0,0,0,0-.5C160.07,38.61,160,38.25,159.94,37.89Zm-10.61,3.56a.61.61,0,0,1-.07.11,2.47,2.47,0,0,0-.26.73,2.49,2.49,0,0,1-.32.68,1.5,1.5,0,0,1-.38.41,1.22,1.22,0,0,0-.28.21c-.08.1-.07.23-.11.35l-.25,0A5.32,5.32,0,0,1,148,43a.49.49,0,0,0,0-.46c0-.06-.12-.1-.15-.16a.89.89,0,0,1-.07-.26.7.7,0,0,1,0-.36,3.22,3.22,0,0,1,.3-.51c.16-.29.3-.58.46-.87a4.85,4.85,0,0,0,.36-.64c.18-.46.16-1,.34-1.41,0-.09.09-.18.13-.27s.08-.12.08-.16c0,.33.07.65.07,1s0,.56,0,.83-.07.56-.11.84,0,.61,0,.92Zm-.05,22.82h0a.22.22,0,0,1-.07-.31,1.08,1.08,0,0,1,.29-.21s.16-.1.17-.12a2.55,2.55,0,0,0,0,.54S149.38,64.28,149.27,64.27Zm8.64-25.45c-.06.08-.29.07-.37.07a3.12,3.12,0,0,1-.83,0,3.74,3.74,0,0,0,.26-.55,6,6,0,0,0,.3-1.72c0-.15,0-.31.05-.46,0,0,0,.09,0,.12l.11.29a3.68,3.68,0,0,1,.24.66c0,.27.08.54.11.81s.08.39.09.59C157.92,38.67,157.94,38.78,157.92,38.82Z" transform="translate(-70.35 -25)"/><path class="cls-1" d="M74.23,40h6.45q4.26,0,6.43,1.4a4.76,4.76,0,0,1,2.17,4.3,7.86,7.86,0,0,1-1.38,4.78,8.23,8.23,0,0,1-3.76,2.8v.15a3.21,3.21,0,0,1,1.63,1.52A17.37,17.37,0,0,1,87,58.23l2.23,7.56a2.12,2.12,0,0,1,.08.42q0,.73-1.69.73h-.38q-1.34,0-1.5-.61l-2.11-7.52a5,5,0,0,0-1.8-3A6.45,6.45,0,0,0,78.34,55H74.88L73.73,66.1q-.11.84-1.61.84h-.31q-1.46,0-1.46-.84L73,41.15A1.14,1.14,0,0,1,74.23,40Zm6,12.13a5.19,5.19,0,0,0,3.86-1.63,5.12,5.12,0,0,0,1.59-3.67q0-3.91-4.76-3.91h-4.8l-1,9.21Z" transform="translate(-70.35 -25)"/><path class="cls-1" d="M108.32,64.33l1-.19c.15,0,.23.14.23.42a7.11,7.11,0,0,1-.13,1.17,1.35,1.35,0,0,1-.88,1.06,3.78,3.78,0,0,1-1.44.31q-3.45,0-3.45-3.76v-.38q-2.76,4.15-6.83,4.14-5.07,0-5.07-5l1.46-14.54q.12-.84,1.61-.84H95q1.46,0,1.46.84Q95.08,60.8,95.08,61.34q0,3,2.92,3a5.13,5.13,0,0,0,3.32-1.5,11,11,0,0,0,2.82-5l1.07-10.21q.11-.84,1.61-.84H107q1.46,0,1.46.84-1.5,14-1.5,14.91a4.34,4.34,0,0,0,.11,1.21.74.74,0,0,0,.35.46A2.2,2.2,0,0,0,108.32,64.33Z" transform="translate(-70.35 -25)"/><path class="cls-1" d="M127.37,51.55l-1.11,11.21q0,1.15.46,1.38a2.2,2.2,0,0,0,.92.19l1-.19c.15,0,.23.14.23.42a7.11,7.11,0,0,1-.13,1.17,1.35,1.35,0,0,1-.88,1.06,3.78,3.78,0,0,1-1.44.31q-3.45,0-3.45-3.76,0-.69.54-5.7t.54-5.32q0-3-2.92-3a5.23,5.23,0,0,0-3.28,1.42,10.3,10.3,0,0,0-2.82,4.76L113.94,66.1q-.12.84-1.61.84h-.15q-1.46,0-1.46-.81,1.69-15,1.69-16.81l0-1.3q0-.88,2.15-.88,1,0,1,2.88a2.65,2.65,0,0,1,0,.42q2.84-3.88,6.83-3.88Q127.37,46.56,127.37,51.55Z" transform="translate(-70.35 -25)"/><path class="cls-1" d="M128.86,58.84a14.65,14.65,0,0,1,2.34-8.48,8.31,8.31,0,0,1,3.19-2.78,10,10,0,0,1,4.6-1,7.44,7.44,0,0,1,5.74,2.13q2,2.13,2,6.2,0,5.87-2.63,9a8.94,8.94,0,0,1-7.27,3.17A7.82,7.82,0,0,1,130.87,65Q128.86,62.87,128.86,58.84ZM137,64.33a5.39,5.39,0,0,0,4.72-2.4q1.65-2.4,1.65-7a6.49,6.49,0,0,0-1.17-4.26,4.49,4.49,0,0,0-3.63-1.38,5.36,5.36,0,0,0-4.76,2.49,12.42,12.42,0,0,0-1.65,6.91Q132.16,64.33,137,64.33Z" transform="translate(-70.35 -25)"/><path class="cls-1" d="M155.91,58.84a14.65,14.65,0,0,1,2.34-8.48,8.31,8.31,0,0,1,3.19-2.78,10,10,0,0,1,4.61-1,7.44,7.44,0,0,1,5.74,2.13q2,2.13,2,6.2,0,5.87-2.63,9a8.94,8.94,0,0,1-7.27,3.17A7.82,7.82,0,0,1,157.92,65,8.56,8.56,0,0,1,155.91,58.84ZM164,64.33a5.39,5.39,0,0,0,4.72-2.4q1.65-2.4,1.65-7a6.49,6.49,0,0,0-1.17-4.26,4.49,4.49,0,0,0-3.63-1.38,5.36,5.36,0,0,0-4.76,2.49,12.42,12.42,0,0,0-1.65,6.91Q159.21,64.33,164,64.33Z" transform="translate(-70.35 -25)"/><path class="cls-1" d="M182.13,75a11.17,11.17,0,0,1-4.68-.88q-1.92-.88-1.92-1.84,0-2.11.54-2.11a4.31,4.31,0,0,1,.79.52,9,9,0,0,0,2.11,1,9.08,9.08,0,0,0,3.17.52,4.87,4.87,0,0,0,4.3-2.23q1.5-2.23,1.92-7.29-2.23,4.14-6.18,4.14a6.61,6.61,0,0,1-4.22-1.57,5.77,5.77,0,0,1-1.73-2.51,10.89,10.89,0,0,1-.65-4A14.06,14.06,0,0,1,178.19,50a8.36,8.36,0,0,1,7-3.42,7.32,7.32,0,0,1,5.07,2.07,7.82,7.82,0,0,1,.38-1,1.45,1.45,0,0,1,1.34-.88h.23q1,0,1,.81l-1.65,15.54q-.69,6.68-2.9,9.31A8,8,0,0,1,182.13,75Zm3.34-25.64q-6.56,0-6.56,9.21,0,5.49,4,5.49a4.77,4.77,0,0,0,3.2-1.53,11.77,11.77,0,0,0,2.74-5l.5-4.72q.08-.69.31-1.92A6.87,6.87,0,0,0,185.47,49.36Z" transform="translate(-70.35 -25)"/><path class="cls-1" d="M196.4,74.85h-.58q-1.19,0-1.19-.58,0-.19,4.3-8.48Q194,47.6,194,47.37q0-.65,1.73-.65h.31q1.3,0,1.46.61l3.76,13.85,6.56-13.85q.31-.61,1.77-.61t1.46.61s-.05.22-.15.58L198.28,74Q197.9,74.85,196.4,74.85Z" transform="translate(-70.35 -25)"/></svg>