<?xml version="1.0" encoding="utf-8"?>
<!-- Generator: Adobe Illustrator 21.0.1, SVG Export Plug-In . SVG Version: 6.00 Build 0)  -->
<svg version="1.1" id="Layer_1" xmlns="http://www.w3.org/2000/svg" xmlns:xlink="http://www.w3.org/1999/xlink" x="0px" y="0px"
	 viewBox="0 0 260 260" style="enable-background:new 0 0 260 260;" xml:space="preserve">
<style type="text/css">
	.st0{fill:url(#SVGID_1_);}
	.st1{fill:#FFFFFF;}
</style>
<g>
	<linearGradient id="SVGID_1_" gradientUnits="userSpaceOnUse" x1="0.625" y1="0.3752" x2="259.625" y2="259.8752">
		<stop  offset="0" style="stop-color:#9B4FC4"/>
		<stop  offset="1" style="stop-color:#009FE3"/>
	</linearGradient>
	<path class="st0" d="M248,260H12c-6.6,0-12-5.4-12-12V12C0,5.4,5.4,0,12,0h236c6.6,0,12,5.4,12,12v236C260,254.6,254.6,260,248,260
		z"/>
</g>
<g>
	<g>
		<path class="st1" d="M30,86.7h7.1V46.4H30V35h28.5c4.8,0,9,0.2,12.6,1.2c7.6,2.3,12.6,8.5,12.6,17.8c0,8.3-4,14-10.3,17.3v0.2
			c0,0,2.5,1.1,3.9,3.8l4.9,9.4c0.8,1.5,2,2,4.1,2h2.2v11.5H78.2c-5.1,0-7.2-1.2-8.9-4.7l-7.7-14.8c-1.1-2-2.2-2.7-5.5-2.7h-3.2
			v10.7h6.6v11.5H30V86.7z M60,63.6c4.9,0,8-2.5,8-8.2c0-2.9-0.7-5.7-3.4-7c-1.4-0.7-3.4-1.1-6.1-1.1h-5.7v16.3H60z"/>
		<path class="st1" d="M97.1,46.4H90V35h30v11.5h-7.1V74c0,2.8,0.6,5.3,1.6,7c1.7,2.8,5.1,4.5,9.5,4.5c4.1,0,7.2-1.4,9.2-4.4
			c1.1-1.9,1.7-4.2,1.7-7.1V46.4h-7.1V35h30v11.5h-7.1V74c0,6.3-1.9,12.4-5.2,16.4c-4.9,6-13.3,8.7-21.6,8.7c-9,0-16.9-3.2-21.5-8.5
			c-3.7-4.2-5.3-10.1-5.3-16.7V46.4z"/>
		<path class="st1" d="M161.8,86.7h7.1V46.4h-7.1V35h23.1l19.8,33.5c1.5,2.6,2.7,6.5,2.7,6.5h0.4c0,0-0.5-4.2-0.5-7.1V46.4h-7.4V35
			H230v11.5h-7.1v51.7H207l-19.9-33.3c-1.5-2.6-2.7-6.5-2.7-6.5h-0.4c0,0,0.5,4.2,0.5,7.1v21.2h7.4v11.5h-30.3V86.7z"/>
	</g>
	<g>
		<path class="st1" d="M50,150.4h4.2l13.7-41.2h14.4L96,150.4h4.2v9.2H79.1v-9.2h4.4l-1.9-6.7h-13l-1.9,6.7h4.4v9.2H50V150.4z
			 M78.8,134.1l-2.6-9.3c-0.8-3.1-1-5.3-1-5.3h-0.3c0,0-0.1,2.2-1,5.3l-2.7,9.3H78.8z"/>
		<path class="st1" d="M102.2,150.4h5.6v-32h-5.6v-9.2h18.4l15.8,26.7c1.2,2,2.1,5.1,2.1,5.1h0.3c0,0-0.4-3.4-0.4-5.6v-17h-5.9v-9.2
			h24.2v9.2h-5.6v41.2h-12.7L122.4,133c-1.2-2-2.1-5.1-2.1-5.1H120c0,0,0.4,3.4,0.4,5.6v16.9h5.9v9.2h-24.2V150.4z"/>
		<path class="st1" d="M160.6,150.4h5.6v-32h-5.6v-9.2h22.2c3.9,0,7.2,0.1,10.4,1.1c10,2.8,16.9,11.5,16.9,24.1
			c0,11.5-5.9,20.1-15.1,23.5c-3.7,1.3-7.5,1.7-12,1.7h-22.3V150.4z M182.5,149.7c3.1,0,5.4-0.4,7.7-1.4c4.3-2.2,6.8-7.2,6.8-13.9
			c0-7.5-3.1-12.3-7.7-14.3c-2.2-0.9-4.2-1.1-6.8-1.1h-3.7v30.6H182.5z"/>
	</g>
	<g>
		<path class="st1" d="M30,214.4h6v-34.2h-6v-9.8h24.3c4.1,0,7.7,0.2,10.7,1.1c6.5,2,10.7,7.2,10.7,15.1c0,7.1-3.4,11.9-8.7,14.7
			v0.1c0,0,2.1,0.9,3.3,3.2l4.1,8c0.7,1.3,1.7,1.7,3.5,1.7h1.9v9.8h-8.9c-4.4,0-6.1-1.1-7.6-4l-6.5-12.5c-0.9-1.7-1.9-2.3-4.7-2.3
			h-2.7v9.1h5.6v9.8H30V214.4z M55.5,194.8c4.2,0,6.8-2.1,6.8-7c0-2.5-0.6-4.8-2.9-5.9c-1.2-0.6-2.9-0.9-5.2-0.9h-4.8v13.8H55.5z"/>
		<path class="st1" d="M110.1,169.6c16.4,0,28.2,12,28.2,27.4c0,15.8-11.9,28.1-28.2,28.1S81.8,212.7,81.8,197
			C81.8,181.6,93.7,169.6,110.1,169.6z M110.1,213.4c7.9,0,14.3-7.1,14.3-16.4c0-9-6.5-15.8-14.3-15.8s-14.3,6.8-14.3,15.8
			C95.7,206.3,102.2,213.4,110.1,213.4z"/>
		<path class="st1" d="M142.4,214.4h6V181h-6v-10.5h25.5V181h-6v32.7h11.6v-7.9h11.3v18.4h-42.3V214.4z"/>
		<path class="st1" d="M187.7,214.4h6V181h-6v-10.5h25.5V181h-6v32.7h11.6v-7.9H230v18.4h-42.3V214.4z"/>
	</g>
</g>
</svg>
